  <svg id="sw-js-blob-svg" viewBox="0 0 100 100" xmlns="http://www.w3.org/2000/svg"><defs><linearGradient id="sw-gradient" x1="0" x2="1" y1="1" y2="0">                            <stop id="stop1" stop-color="rgba(248, 117, 55, 1)" offset="0%"></stop>                            <stop id="stop2" stop-color="rgba(251, 168, 31, 1)" offset="100%"></stop>                        </linearGradient>                    </defs>                <path fill="url(#sw-gradient)" d="M22.9,-26.6C30.2,-21.2,37,-14.5,38.7,-6.5C40.5,1.4,37.2,10.5,32.3,18.4C27.5,26.3,20.9,32.9,12.4,37.4C3.9,42,-6.6,44.4,-16.1,41.9C-25.7,39.5,-34.3,32.1,-37.8,23.2C-41.2,14.3,-39.5,3.8,-37.1,-5.9C-34.6,-15.7,-31.4,-24.6,-25.1,-30.2C-18.8,-35.7,-9.4,-37.8,-0.8,-36.8C7.8,-35.9,15.6,-31.9,22.9,-26.6Z" width="100%" height="100%" transform="translate(50 50)" stroke-width="0" style="transition: all 0.3s ease 0s;"></path>              </svg>